%TF.GenerationSoftware,KiCad,Pcbnew,8.0.3*%
%TF.CreationDate,2024-07-08T14:58:30-04:00*%
%TF.ProjectId,TempSensorArduino,54656d70-5365-46e7-936f-724172647569,rev?*%
%TF.SameCoordinates,Original*%
%TF.FileFunction,Copper,L1,Top*%
%TF.FilePolarity,Positive*%
%FSLAX46Y46*%
G04 Gerber Fmt 4.6, Leading zero omitted, Abs format (unit mm)*
G04 Created by KiCad (PCBNEW 8.0.3) date 2024-07-08 14:58:30*
%MOMM*%
%LPD*%
G01*
G04 APERTURE LIST*
%TA.AperFunction,ComponentPad*%
%ADD10R,1.600000X1.600000*%
%TD*%
%TA.AperFunction,ComponentPad*%
%ADD11O,1.600000X1.600000*%
%TD*%
%TA.AperFunction,ComponentPad*%
%ADD12C,4.000000*%
%TD*%
%TA.AperFunction,ComponentPad*%
%ADD13C,1.600000*%
%TD*%
%TA.AperFunction,Conductor*%
%ADD14C,0.200000*%
%TD*%
%TA.AperFunction,Conductor*%
%ADD15C,0.500000*%
%TD*%
G04 APERTURE END LIST*
D10*
%TO.P,A1,1,TX1*%
%TO.N,unconnected-(A1-TX1-Pad1)*%
X147890000Y-84000000D03*
D11*
%TO.P,A1,2,RX1*%
%TO.N,unconnected-(A1-RX1-Pad2)*%
X147890000Y-86540000D03*
%TO.P,A1,3,~{RESET}*%
%TO.N,unconnected-(A1-~{RESET}-Pad3)*%
X147890000Y-89080000D03*
%TO.P,A1,4,GND*%
%TO.N,Net-(A1-GND-Pad29)*%
X147890000Y-91620000D03*
%TO.P,A1,5,D2*%
%TO.N,unconnected-(A1-D2-Pad5)*%
X147890000Y-94160000D03*
%TO.P,A1,6,D3*%
%TO.N,unconnected-(A1-D3-Pad6)*%
X147890000Y-96700000D03*
%TO.P,A1,7,D4*%
%TO.N,unconnected-(A1-D4-Pad7)*%
X147890000Y-99240000D03*
%TO.P,A1,8,D5*%
%TO.N,unconnected-(A1-D5-Pad8)*%
X147890000Y-101780000D03*
%TO.P,A1,9,D6*%
%TO.N,unconnected-(A1-D6-Pad9)*%
X147890000Y-104320000D03*
%TO.P,A1,10,D7*%
%TO.N,unconnected-(A1-D7-Pad10)*%
X147890000Y-106860000D03*
%TO.P,A1,11,D8*%
%TO.N,unconnected-(A1-D8-Pad11)*%
X147890000Y-109400000D03*
%TO.P,A1,12,D9*%
%TO.N,unconnected-(A1-D9-Pad12)*%
X147890000Y-111940000D03*
%TO.P,A1,13,D10*%
%TO.N,unconnected-(A1-D10-Pad13)*%
X147890000Y-114480000D03*
%TO.P,A1,14,MOSI*%
%TO.N,unconnected-(A1-MOSI-Pad14)*%
X147890000Y-117020000D03*
%TO.P,A1,15,MISO*%
%TO.N,unconnected-(A1-MISO-Pad15)*%
X147890000Y-119560000D03*
%TO.P,A1,16,SCK*%
%TO.N,unconnected-(A1-SCK-Pad16)*%
X163130000Y-119560000D03*
%TO.P,A1,17,3V3*%
%TO.N,Net-(A1-3V3)*%
X163130000Y-117020000D03*
%TO.P,A1,18,AREF*%
X163130000Y-114480000D03*
%TO.P,A1,19,A0*%
%TO.N,Net-(A1-A0)*%
X163130000Y-111940000D03*
%TO.P,A1,20,A1*%
%TO.N,Net-(A1-A1)*%
X163130000Y-109400000D03*
%TO.P,A1,21,A2*%
%TO.N,Net-(A1-A2)*%
X163130000Y-106860000D03*
%TO.P,A1,22,A3*%
%TO.N,Net-(A1-A3)*%
X163130000Y-104320000D03*
%TO.P,A1,23,SDA/A4*%
%TO.N,Net-(A1-SDA{slash}A4)*%
X163130000Y-101780000D03*
%TO.P,A1,24,SCL/A5*%
%TO.N,Net-(A1-SCL{slash}A5)*%
X163130000Y-99240000D03*
%TO.P,A1,25,A6*%
%TO.N,Net-(A1-A6)*%
X163130000Y-96700000D03*
%TO.P,A1,26,A7*%
%TO.N,unconnected-(A1-A7-Pad26)*%
X163130000Y-94160000D03*
%TO.P,A1,27,+5V*%
%TO.N,unconnected-(A1-+5V-Pad27)*%
X163130000Y-91620000D03*
%TO.P,A1,28,~{RESET}*%
%TO.N,unconnected-(A1-~{RESET}-Pad28)*%
X163130000Y-89080000D03*
%TO.P,A1,29,GND*%
%TO.N,Net-(A1-GND-Pad29)*%
X163130000Y-86540000D03*
%TO.P,A1,30,VIN*%
%TO.N,unconnected-(A1-VIN-Pad30)*%
X163130000Y-84000000D03*
%TD*%
D12*
%TO.P,J1,0,PAD*%
%TO.N,unconnected-(J1-PAD-Pad0)*%
X168010000Y-71110331D03*
X143010000Y-71110331D03*
D10*
%TO.P,J1,1,1*%
%TO.N,Net-(A1-3V3)*%
X161050000Y-72530331D03*
D13*
%TO.P,J1,2,2*%
%TO.N,Net-(A1-SCL{slash}A5)*%
X158280000Y-72530331D03*
%TO.P,J1,3,3*%
%TO.N,Net-(A1-A3)*%
X155510000Y-72530331D03*
%TO.P,J1,4,4*%
%TO.N,Net-(A1-A1)*%
X152740000Y-72530331D03*
%TO.P,J1,5,5*%
%TO.N,Net-(A1-GND-Pad29)*%
X149970000Y-72530331D03*
%TO.P,J1,6,6*%
%TO.N,Net-(A1-A6)*%
X159665000Y-69690331D03*
%TO.P,J1,7,7*%
%TO.N,Net-(A1-SDA{slash}A4)*%
X156895000Y-69690331D03*
%TO.P,J1,8,8*%
%TO.N,Net-(A1-A2)*%
X154125000Y-69690331D03*
%TO.P,J1,9,9*%
%TO.N,Net-(A1-A0)*%
X151355000Y-69690331D03*
%TD*%
D14*
%TO.N,Net-(A1-SDA{slash}A4)*%
X156895000Y-69690331D02*
X156895000Y-95545000D01*
X156895000Y-69690331D02*
X156800000Y-69785331D01*
X156895000Y-95545000D02*
X163130000Y-101780000D01*
D15*
%TO.N,Net-(A1-GND-Pad29)*%
X145200000Y-88930000D02*
X147890000Y-91620000D01*
X145200000Y-77300331D02*
X145200000Y-88930000D01*
X149970000Y-72530331D02*
X145200000Y-77300331D01*
%TO.N,Net-(A1-3V3)*%
X166200000Y-77680331D02*
X166200000Y-113605000D01*
X165325000Y-114480000D02*
X163130000Y-114480000D01*
X163130000Y-117020000D02*
X163130000Y-114480000D01*
X161050000Y-72530331D02*
X166200000Y-77680331D01*
X166200000Y-113605000D02*
X165325000Y-114480000D01*
D14*
%TO.N,Net-(A1-A3)*%
X155510000Y-72530331D02*
X155510000Y-96700000D01*
X155510000Y-96700000D02*
X163130000Y-104320000D01*
X155510000Y-72830331D02*
X155490000Y-72850331D01*
%TO.N,Net-(A1-A6)*%
X159665000Y-69690331D02*
X159665000Y-93235000D01*
X159665000Y-93235000D02*
X163130000Y-96700000D01*
X159665000Y-69990331D02*
X159600000Y-70055331D01*
%TO.N,Net-(A1-SCL{slash}A5)*%
X158280000Y-72530331D02*
X158280000Y-94390000D01*
X158280000Y-94390000D02*
X163130000Y-99240000D01*
%TO.N,Net-(A1-A0)*%
X151572666Y-69772665D02*
X151355000Y-69990331D01*
X151355000Y-69690331D02*
X151355000Y-100165000D01*
X151355000Y-100165000D02*
X163130000Y-111940000D01*
%TO.N,Net-(A1-A1)*%
X152740000Y-99010000D02*
X163130000Y-109400000D01*
X152740000Y-72530331D02*
X152740000Y-99010000D01*
%TO.N,Net-(A1-A2)*%
X154125000Y-69690331D02*
X154125000Y-97855000D01*
X154125000Y-97855000D02*
X163130000Y-106860000D01*
X154325000Y-69790331D02*
X154125000Y-69990331D01*
%TD*%
M02*
