%TF.GenerationSoftware,KiCad,Pcbnew,8.0.3*%
%TF.CreationDate,2024-07-08T14:58:30-04:00*%
%TF.ProjectId,TempSensorArduino,54656d70-5365-46e7-936f-724172647569,rev?*%
%TF.SameCoordinates,Original*%
%TF.FileFunction,Legend,Bot*%
%TF.FilePolarity,Positive*%
%FSLAX46Y46*%
G04 Gerber Fmt 4.6, Leading zero omitted, Abs format (unit mm)*
G04 Created by KiCad (PCBNEW 8.0.3) date 2024-07-08 14:58:30*
%MOMM*%
%LPD*%
G01*
G04 APERTURE LIST*
%ADD10R,1.600000X1.600000*%
%ADD11O,1.600000X1.600000*%
%ADD12C,4.000000*%
%ADD13C,1.600000*%
G04 APERTURE END LIST*
%LPC*%
D10*
%TO.C,A1*%
X147890000Y-84000000D03*
D11*
X147890000Y-86540000D03*
X147890000Y-89080000D03*
X147890000Y-91620000D03*
X147890000Y-94160000D03*
X147890000Y-96700000D03*
X147890000Y-99240000D03*
X147890000Y-101780000D03*
X147890000Y-104320000D03*
X147890000Y-106860000D03*
X147890000Y-109400000D03*
X147890000Y-111940000D03*
X147890000Y-114480000D03*
X147890000Y-117020000D03*
X147890000Y-119560000D03*
X163130000Y-119560000D03*
X163130000Y-117020000D03*
X163130000Y-114480000D03*
X163130000Y-111940000D03*
X163130000Y-109400000D03*
X163130000Y-106860000D03*
X163130000Y-104320000D03*
X163130000Y-101780000D03*
X163130000Y-99240000D03*
X163130000Y-96700000D03*
X163130000Y-94160000D03*
X163130000Y-91620000D03*
X163130000Y-89080000D03*
X163130000Y-86540000D03*
X163130000Y-84000000D03*
%TD*%
D12*
%TO.C,J1*%
X168010000Y-71110331D03*
X143010000Y-71110331D03*
D10*
X161050000Y-72530331D03*
D13*
X158280000Y-72530331D03*
X155510000Y-72530331D03*
X152740000Y-72530331D03*
X149970000Y-72530331D03*
X159665000Y-69690331D03*
X156895000Y-69690331D03*
X154125000Y-69690331D03*
X151355000Y-69690331D03*
%TD*%
%LPD*%
M02*
