M48
; DRILL file {KiCad 8.0.3} date 2024-07-08T14:58:33-0400
; FORMAT={-:-/ absolute / metric / decimal}
; #@! TF.CreationDate,2024-07-08T14:58:33-04:00
; #@! TF.GenerationSoftware,Kicad,Pcbnew,8.0.3
; #@! TF.FileFunction,Plated,1,2,PTH
FMAT,2
METRIC
; #@! TA.AperFunction,Plated,PTH,ComponentDrill
T1C1.000
; #@! TA.AperFunction,Plated,PTH,ComponentDrill
T2C3.200
%
G90
G05
T1
X147.89Y-84.0
X147.89Y-86.54
X147.89Y-89.08
X147.89Y-91.62
X147.89Y-94.16
X147.89Y-96.7
X147.89Y-99.24
X147.89Y-101.78
X147.89Y-104.32
X147.89Y-106.86
X147.89Y-109.4
X147.89Y-111.94
X147.89Y-114.48
X147.89Y-117.02
X147.89Y-119.56
X149.97Y-72.53
X151.355Y-69.69
X152.74Y-72.53
X154.125Y-69.69
X155.51Y-72.53
X156.895Y-69.69
X158.28Y-72.53
X159.665Y-69.69
X161.05Y-72.53
X163.13Y-84.0
X163.13Y-86.54
X163.13Y-89.08
X163.13Y-91.62
X163.13Y-94.16
X163.13Y-96.7
X163.13Y-99.24
X163.13Y-101.78
X163.13Y-104.32
X163.13Y-106.86
X163.13Y-109.4
X163.13Y-111.94
X163.13Y-114.48
X163.13Y-117.02
X163.13Y-119.56
T2
X143.01Y-71.11
X168.01Y-71.11
M30
